<svg xmlns="http://www.w3.org/2000/svg" width="1024" height="1024" viewBox="0 0 1024 1024">
  <defs>
    <filter id="chalk-grain" x="0" y="0" width="100%" height="100%">
      <feTurbulence type="fractalNoise" baseFrequency="0.16" numOctaves="4" seed="19" result="noise"/>
      <feColorMatrix in="noise" type="saturate" values="0" result="grey-noise"/>
      <feBlend in="SourceGraphic" in2="grey-noise" mode="multiply"/>
    </filter>
    <filter id="line-bloom" x="-20%" y="-300%" width="140%" height="700%">
      <feGaussianBlur stdDeviation="11"/>
    </filter>
    <clipPath id="dome-clip">
      <path d="M171 512 L171 502 C174 327 327 171 512 171 C697 171 850 327 853 502 L853 512 Z"/>
    </clipPath>
  </defs>

  <rect width="1024" height="1024" fill="#050607"/>

  <!-- The locked Divine/Radiant Smite semicircle, unchanged. -->
  <path d="M171 512 L171 502 C174 327 327 171 512 171 C697 171 850 327 853 502 L853 512 Z" fill="#e8e6df"/>
  <g clip-path="url(#dome-clip)">
    <rect x="171" y="171" width="682" height="341" fill="#fffef7" filter="url(#chalk-grain)"/>
  </g>
  <g clip-path="url(#dome-clip)" opacity="0.3" stroke="#fffef7" stroke-width="13" stroke-linecap="round">
    <path d="M178 487 C310 462 472 483 681 451 M219 405 C375 374 550 404 810 365 M287 319 C431 294 605 315 756 287 M382 233 C497 219 599 229 683 215"/>
  </g>
  <path d="M171 502 C174 327 327 171 512 171 C697 171 850 327 853 502"
        fill="none" stroke="#ffffff" stroke-width="11" stroke-linecap="round"
        stroke-dasharray="17 3 31 2 9 2" opacity="0.72"/>

  <!-- Moderately thick yellow-white chalk line through the former star centre. -->
  <path d="M369 735 C419 731 468 739 516 735 C562 731 608 738 655 735"
        fill="none" stroke="#ffe85a" stroke-width="54" stroke-linecap="round" opacity="0.22" filter="url(#line-bloom)"/>
  <path d="M369 735 C419 731 468 739 516 735 C562 731 608 738 655 735"
        fill="none" stroke="#fff8ad" stroke-width="38" stroke-linecap="round"/>
  <path d="M369 735 C419 731 468 739 516 735 C562 731 608 738 655 735"
        fill="none" stroke="#fffef0" stroke-width="25" stroke-linecap="round"
        stroke-dasharray="31 2 17 3 43 2"/>
  <path d="M382 728 C430 738 476 728 526 738 C570 746 607 729 643 741"
        fill="none" stroke="#d5b934" stroke-width="4" stroke-linecap="round" opacity="0.42"/>
</svg>
